<svg id="visual" viewBox="0 0 900 600" width="900" height="600" xmlns="http://www.w3.org/2000/svg" xmlns:xlink="http://www.w3.org/1999/xlink" version="1.1"><rect x="0" y="0" width="900" height="600" fill="#FDD6FF"></rect><defs><linearGradient id="grad1_0" x1="33.3%" y1="0%" x2="100%" y2="100%"><stop offset="20%" stop-color="#442b48" stop-opacity="1"></stop><stop offset="80%" stop-color="#442b48" stop-opacity="1"></stop></linearGradient></defs><defs><linearGradient id="grad1_1" x1="33.3%" y1="0%" x2="100%" y2="100%"><stop offset="20%" stop-color="#442b48" stop-opacity="1"></stop><stop offset="80%" stop-color="#6e5272" stop-opacity="1"></stop></linearGradient></defs><defs><linearGradient id="grad1_2" x1="33.3%" y1="0%" x2="100%" y2="100%"><stop offset="20%" stop-color="#9b7b9f" stop-opacity="1"></stop><stop offset="80%" stop-color="#6e5272" stop-opacity="1"></stop></linearGradient></defs><defs><linearGradient id="grad1_3" x1="33.3%" y1="0%" x2="100%" y2="100%"><stop offset="20%" stop-color="#9b7b9f" stop-opacity="1"></stop><stop offset="80%" stop-color="#cba7ce" stop-opacity="1"></stop></linearGradient></defs><defs><linearGradient id="grad1_4" x1="33.3%" y1="0%" x2="100%" y2="100%"><stop offset="20%" stop-color="#fdd6ff" stop-opacity="1"></stop><stop offset="80%" stop-color="#cba7ce" stop-opacity="1"></stop></linearGradient></defs><defs><linearGradient id="grad2_0" x1="0%" y1="0%" x2="66.7%" y2="100%"><stop offset="20%" stop-color="#442b48" stop-opacity="1"></stop><stop offset="80%" stop-color="#442b48" stop-opacity="1"></stop></linearGradient></defs><defs><linearGradient id="grad2_1" x1="0%" y1="0%" x2="66.7%" y2="100%"><stop offset="20%" stop-color="#6e5272" stop-opacity="1"></stop><stop offset="80%" stop-color="#442b48" stop-opacity="1"></stop></linearGradient></defs><defs><linearGradient id="grad2_2" x1="0%" y1="0%" x2="66.7%" y2="100%"><stop offset="20%" stop-color="#6e5272" stop-opacity="1"></stop><stop offset="80%" stop-color="#9b7b9f" stop-opacity="1"></stop></linearGradient></defs><defs><linearGradient id="grad2_3" x1="0%" y1="0%" x2="66.7%" y2="100%"><stop offset="20%" stop-color="#cba7ce" stop-opacity="1"></stop><stop offset="80%" stop-color="#9b7b9f" stop-opacity="1"></stop></linearGradient></defs><defs><linearGradient id="grad2_4" x1="0%" y1="0%" x2="66.7%" y2="100%"><stop offset="20%" stop-color="#cba7ce" stop-opacity="1"></stop><stop offset="80%" stop-color="#fdd6ff" stop-opacity="1"></stop></linearGradient></defs><g transform="translate(900, 0)"><path d="M0 253C-38.1 263.2 -76.1 273.3 -108.7 262.4C-141.2 251.4 -168.3 219.4 -189.5 189.5C-210.7 159.6 -226 131.9 -243 100.6C-260 69.4 -278.7 34.7 -297.5 0L0 0Z" fill="#e4bee6"></path><path d="M0 202.4C-30.4 210.5 -60.9 218.7 -86.9 209.9C-113 201.2 -134.7 175.5 -151.6 151.6C-168.5 127.7 -180.8 105.5 -194.4 80.5C-208 55.5 -223 27.8 -238 0L0 0Z" fill="#b391b6"></path><path d="M0 151.8C-22.8 157.9 -45.7 164 -65.2 157.4C-84.7 150.9 -101 131.6 -113.7 113.7C-126.4 95.8 -135.6 79.1 -145.8 60.4C-156 41.7 -167.2 20.8 -178.5 0L0 0Z" fill="#856688"></path><path d="M0 101.2C-15.2 105.3 -30.4 109.3 -43.5 105C-56.5 100.6 -67.3 87.8 -75.8 75.8C-84.3 63.8 -90.4 52.7 -97.2 40.3C-104 27.8 -111.5 13.9 -119 0L0 0Z" fill="#593e5d"></path><path d="M0 50.6C-7.6 52.6 -15.2 54.7 -21.7 52.5C-28.2 50.3 -33.7 43.9 -37.9 37.9C-42.1 31.9 -45.2 26.4 -48.6 20.1C-52 13.9 -55.7 6.9 -59.5 0L0 0Z" fill="#442b48"></path></g><g transform="translate(0, 600)"><path d="M0 -284C29 -263.2 57.9 -242.3 97.2 -234.7C136.5 -227 186 -232.5 210.3 -210.3C234.6 -188.2 233.6 -138.4 238.4 -98.7C243.1 -59.1 253.5 -29.5 264 0L0 0Z" fill="#e4bee6"></path><path d="M0 -227.2C23.2 -210.5 46.3 -193.9 77.8 -187.7C109.2 -181.6 148.8 -186 168.3 -168.3C187.7 -150.5 186.9 -110.7 190.7 -79C194.5 -47.3 202.8 -23.6 211.2 0L0 0Z" fill="#b391b6"></path><path d="M0 -170.4C17.4 -157.9 34.8 -145.4 58.3 -140.8C81.9 -136.2 111.6 -139.5 126.2 -126.2C140.8 -112.9 140.2 -83 143 -59.2C145.9 -35.4 152.1 -17.7 158.4 0L0 0Z" fill="#856688"></path><path d="M0 -113.6C11.6 -105.3 23.2 -96.9 38.9 -93.9C54.6 -90.8 74.4 -93 84.1 -84.1C93.8 -75.3 93.5 -55.4 95.3 -39.5C97.2 -23.6 101.4 -11.8 105.6 0L0 0Z" fill="#593e5d"></path><path d="M0 -56.8C5.8 -52.6 11.6 -48.5 19.4 -46.9C27.3 -45.4 37.2 -46.5 42.1 -42.1C46.9 -37.6 46.7 -27.7 47.7 -19.7C48.6 -11.8 50.7 -5.9 52.8 0L0 0Z" fill="#442b48"></path></g></svg>