<svg id="visual" viewBox="0 0 900 600" width="900" height="600" xmlns="http://www.w3.org/2000/svg" xmlns:xlink="http://www.w3.org/1999/xlink" version="1.1"><rect x="0" y="0" width="900" height="600" fill="#FFDDAF"></rect><defs><linearGradient id="grad1_0" x1="33.3%" y1="0%" x2="100%" y2="100%"><stop offset="20%" stop-color="#edb458" stop-opacity="1"></stop><stop offset="80%" stop-color="#edb458" stop-opacity="1"></stop></linearGradient></defs><defs><linearGradient id="grad1_1" x1="33.3%" y1="0%" x2="100%" y2="100%"><stop offset="20%" stop-color="#edb458" stop-opacity="1"></stop><stop offset="80%" stop-color="#f2be6e" stop-opacity="1"></stop></linearGradient></defs><defs><linearGradient id="grad1_2" x1="33.3%" y1="0%" x2="100%" y2="100%"><stop offset="20%" stop-color="#f7c884" stop-opacity="1"></stop><stop offset="80%" stop-color="#f2be6e" stop-opacity="1"></stop></linearGradient></defs><defs><linearGradient id="grad1_3" x1="33.3%" y1="0%" x2="100%" y2="100%"><stop offset="20%" stop-color="#f7c884" stop-opacity="1"></stop><stop offset="80%" stop-color="#fbd399" stop-opacity="1"></stop></linearGradient></defs><defs><linearGradient id="grad1_4" x1="33.3%" y1="0%" x2="100%" y2="100%"><stop offset="20%" stop-color="#ffddaf" stop-opacity="1"></stop><stop offset="80%" stop-color="#fbd399" stop-opacity="1"></stop></linearGradient></defs><defs><linearGradient id="grad2_0" x1="0%" y1="0%" x2="66.7%" y2="100%"><stop offset="20%" stop-color="#edb458" stop-opacity="1"></stop><stop offset="80%" stop-color="#edb458" stop-opacity="1"></stop></linearGradient></defs><defs><linearGradient id="grad2_1" x1="0%" y1="0%" x2="66.7%" y2="100%"><stop offset="20%" stop-color="#f2be6e" stop-opacity="1"></stop><stop offset="80%" stop-color="#edb458" stop-opacity="1"></stop></linearGradient></defs><defs><linearGradient id="grad2_2" x1="0%" y1="0%" x2="66.7%" y2="100%"><stop offset="20%" stop-color="#f2be6e" stop-opacity="1"></stop><stop offset="80%" stop-color="#f7c884" stop-opacity="1"></stop></linearGradient></defs><defs><linearGradient id="grad2_3" x1="0%" y1="0%" x2="66.7%" y2="100%"><stop offset="20%" stop-color="#fbd399" stop-opacity="1"></stop><stop offset="80%" stop-color="#f7c884" stop-opacity="1"></stop></linearGradient></defs><defs><linearGradient id="grad2_4" x1="0%" y1="0%" x2="66.7%" y2="100%"><stop offset="20%" stop-color="#fbd399" stop-opacity="1"></stop><stop offset="80%" stop-color="#ffddaf" stop-opacity="1"></stop></linearGradient></defs><g transform="translate(900, 0)"><path d="M0 258C-42 274.3 -83.9 290.6 -113.8 274.8C-143.7 259 -161.6 211.2 -176.1 176.1C-190.5 141 -201.6 118.7 -220.8 91.5C-240.1 64.2 -267.5 32.1 -295 0L0 0Z" fill="#fdd8a4"></path><path d="M0 206.4C-33.6 219.4 -67.1 232.5 -91.1 219.9C-115 207.2 -129.3 168.9 -140.9 140.9C-152.4 112.8 -161.2 94.9 -176.6 73.2C-192 51.4 -214 25.7 -236 0L0 0Z" fill="#f9cd8f"></path><path d="M0 154.8C-25.2 164.6 -50.4 174.4 -68.3 164.9C-86.2 155.4 -97 126.7 -105.6 105.6C-114.3 84.6 -120.9 71.2 -132.5 54.9C-144 38.5 -160.5 19.3 -177 0L0 0Z" fill="#f5c379"></path><path d="M0 103.2C-16.8 109.7 -33.6 116.2 -45.5 109.9C-57.5 103.6 -64.6 84.5 -70.4 70.4C-76.2 56.4 -80.6 47.5 -88.3 36.6C-96 25.7 -107 12.8 -118 0L0 0Z" fill="#f0b963"></path><path d="M0 51.6C-8.4 54.9 -16.8 58.1 -22.8 55C-28.7 51.8 -32.3 42.2 -35.2 35.2C-38.1 28.2 -40.3 23.7 -44.2 18.3C-48 12.8 -53.5 6.4 -59 0L0 0Z" fill="#edb458"></path></g><g transform="translate(0, 600)"><path d="M0 -265C43.8 -279.3 87.7 -293.6 113.8 -274.8C140 -256 148.5 -204.1 173.2 -173.2C198 -142.4 239 -132.5 258.7 -107.2C278.4 -81.8 276.7 -40.9 275 0L0 0Z" fill="#fdd8a4"></path><path d="M0 -212C35.1 -223.4 70.1 -234.9 91.1 -219.9C112 -204.8 118.8 -163.3 138.6 -138.6C158.4 -113.9 191.2 -106 206.9 -85.7C222.7 -65.4 221.3 -32.7 220 0L0 0Z" fill="#f9cd8f"></path><path d="M0 -159C26.3 -167.6 52.6 -176.2 68.3 -164.9C84 -153.6 89.1 -122.5 103.9 -103.9C118.8 -85.4 143.4 -79.5 155.2 -64.3C167 -49.1 166 -24.5 165 0L0 0Z" fill="#f5c379"></path><path d="M0 -106C17.5 -111.7 35.1 -117.4 45.5 -109.9C56 -102.4 59.4 -81.6 69.3 -69.3C79.2 -56.9 95.6 -53 103.5 -42.9C111.3 -32.7 110.7 -16.4 110 0L0 0Z" fill="#f0b963"></path><path d="M0 -53C8.8 -55.9 17.5 -58.7 22.8 -55C28 -51.2 29.7 -40.8 34.6 -34.6C39.6 -28.5 47.8 -26.5 51.7 -21.4C55.7 -16.4 55.3 -8.2 55 0L0 0Z" fill="#edb458"></path></g></svg>