<svg id="visual" viewBox="0 0 900 600" width="900" height="600" xmlns="http://www.w3.org/2000/svg" xmlns:xlink="http://www.w3.org/1999/xlink" version="1.1"><rect x="0" y="0" width="900" height="600" fill="#FFDAD6"></rect><defs><linearGradient id="grad1_0" x1="33.3%" y1="100%" x2="100%" y2="0%"><stop offset="20%" stop-color="#c33c54" stop-opacity="1"></stop><stop offset="80%" stop-color="#c33c54" stop-opacity="1"></stop></linearGradient></defs><defs><linearGradient id="grad1_1" x1="33.3%" y1="100%" x2="100%" y2="0%"><stop offset="20%" stop-color="#c33c54" stop-opacity="1"></stop><stop offset="80%" stop-color="#d56870" stop-opacity="1"></stop></linearGradient></defs><defs><linearGradient id="grad1_2" x1="33.3%" y1="100%" x2="100%" y2="0%"><stop offset="20%" stop-color="#e58e8e" stop-opacity="1"></stop><stop offset="80%" stop-color="#d56870" stop-opacity="1"></stop></linearGradient></defs><defs><linearGradient id="grad1_3" x1="33.3%" y1="100%" x2="100%" y2="0%"><stop offset="20%" stop-color="#e58e8e" stop-opacity="1"></stop><stop offset="80%" stop-color="#f3b4b1" stop-opacity="1"></stop></linearGradient></defs><defs><linearGradient id="grad1_4" x1="33.3%" y1="100%" x2="100%" y2="0%"><stop offset="20%" stop-color="#ffdad6" stop-opacity="1"></stop><stop offset="80%" stop-color="#f3b4b1" stop-opacity="1"></stop></linearGradient></defs><defs><linearGradient id="grad2_0" x1="0%" y1="100%" x2="66.7%" y2="0%"><stop offset="20%" stop-color="#c33c54" stop-opacity="1"></stop><stop offset="80%" stop-color="#c33c54" stop-opacity="1"></stop></linearGradient></defs><defs><linearGradient id="grad2_1" x1="0%" y1="100%" x2="66.7%" y2="0%"><stop offset="20%" stop-color="#d56870" stop-opacity="1"></stop><stop offset="80%" stop-color="#c33c54" stop-opacity="1"></stop></linearGradient></defs><defs><linearGradient id="grad2_2" x1="0%" y1="100%" x2="66.7%" y2="0%"><stop offset="20%" stop-color="#d56870" stop-opacity="1"></stop><stop offset="80%" stop-color="#e58e8e" stop-opacity="1"></stop></linearGradient></defs><defs><linearGradient id="grad2_3" x1="0%" y1="100%" x2="66.7%" y2="0%"><stop offset="20%" stop-color="#f3b4b1" stop-opacity="1"></stop><stop offset="80%" stop-color="#e58e8e" stop-opacity="1"></stop></linearGradient></defs><defs><linearGradient id="grad2_4" x1="0%" y1="100%" x2="66.7%" y2="0%"><stop offset="20%" stop-color="#f3b4b1" stop-opacity="1"></stop><stop offset="80%" stop-color="#ffdad6" stop-opacity="1"></stop></linearGradient></defs><g transform="translate(900, 600)"><path d="M-297.5 0C-282.5 -35.5 -267.5 -70.9 -250.4 -103.7C-233.3 -136.5 -214.1 -166.5 -188.8 -188.8C-163.5 -211.1 -132 -225.6 -99.5 -240.2C-67 -254.8 -33.5 -269.4 0 -284L0 0Z" fill="#f9c7c3"></path><path d="M-238 0C-226 -28.4 -214 -56.8 -200.3 -83C-186.6 -109.2 -171.3 -133.2 -151 -151C-130.8 -168.9 -105.6 -180.5 -79.6 -192.2C-53.6 -203.8 -26.8 -215.5 0 -227.2L0 0Z" fill="#eda19f"></path><path d="M-178.5 0C-169.5 -21.3 -160.5 -42.6 -150.2 -62.2C-140 -81.9 -128.5 -99.9 -113.3 -113.3C-98.1 -126.7 -79.2 -135.4 -59.7 -144.1C-40.2 -152.9 -20.1 -161.6 0 -170.4L0 0Z" fill="#dd7b7f"></path><path d="M-119 0C-113 -14.2 -107 -28.4 -100.1 -41.5C-93.3 -54.6 -85.6 -66.6 -75.5 -75.5C-65.4 -84.4 -52.8 -90.3 -39.8 -96.1C-26.8 -101.9 -13.4 -107.8 0 -113.6L0 0Z" fill="#cc5361"></path><path d="M-59.5 0C-56.5 -7.1 -53.5 -14.2 -50.1 -20.7C-46.7 -27.3 -42.8 -33.3 -37.8 -37.8C-32.7 -42.2 -26.4 -45.1 -19.9 -48C-13.4 -51 -6.7 -53.9 0 -56.8L0 0Z" fill="#c33c54"></path></g><g transform="translate(0, 0)"><path d="M272 0C280.8 41.7 289.6 83.4 273.5 113.3C257.4 143.2 216.3 161.3 186.7 186.7C157 212 138.7 244.6 109.4 264.2C80.2 283.9 40.1 290.7 0 297.5L0 0Z" fill="#f9c7c3"></path><path d="M217.6 0C224.6 33.3 231.7 66.7 218.8 90.6C205.9 114.5 173.1 129.1 149.3 149.3C125.6 169.6 110.9 195.7 87.6 211.4C64.2 227.1 32.1 232.5 0 238L0 0Z" fill="#eda19f"></path><path d="M163.2 0C168.5 25 173.7 50 164.1 68C154.4 85.9 129.8 96.8 112 112C94.2 127.2 83.2 146.7 65.7 158.5C48.1 170.3 24.1 174.4 0 178.5L0 0Z" fill="#dd7b7f"></path><path d="M108.8 0C112.3 16.7 115.8 33.3 109.4 45.3C102.9 57.3 86.5 64.5 74.7 74.7C62.8 84.8 55.5 97.8 43.8 105.7C32.1 113.6 16 116.3 0 119L0 0Z" fill="#cc5361"></path><path d="M54.4 0C56.2 8.3 57.9 16.7 54.7 22.7C51.5 28.6 43.3 32.3 37.3 37.3C31.4 42.4 27.7 48.9 21.9 52.8C16 56.8 8 58.1 0 59.5L0 0Z" fill="#c33c54"></path></g></svg>