<svg xmlns="http://www.w3.org/2000/svg" version="1.1" xmlns:xlink="http://www.w3.org/1999/xlink" xmlns:svgjs="http://svgjs.com/svgjs" width="1440" height="560" preserveAspectRatio="none" viewBox="0 0 1440 560"><g mask="url(&quot;#SvgjsMask1380&quot;)" fill="none"><rect width="225.68" height="225.68" clip-path="url(&quot;#SvgjsClipPath1381&quot;)" x="84.81" y="128.76" fill="url(#SvgjsPattern1382)" transform="rotate(137.76, 197.65, 241.6)"></rect><rect width="60" height="60" clip-path="url(&quot;#SvgjsClipPath1383&quot;)" x="663.12" y="431.49" fill="url(#SvgjsPattern1384)" transform="rotate(39.6, 693.12, 461.49)"></rect><path d="M1482.11 321.51 L1471.62 237.76000000000002L1519.5748852903434 236.9251147096562z" stroke="rgba(195, 60, 84, 1)" stroke-width="1" stroke-dasharray="2, 2"></path><circle r="69.02106061319519" cx="229.13" cy="464.64" stroke="rgba(68, 43, 72, 1)" stroke-width="1" stroke-dasharray="4, 4"></circle><rect width="97.2" height="97.2" clip-path="url(&quot;#SvgjsClipPath1385&quot;)" x="44.84" y="309.93" fill="url(#SvgjsPattern1386)" transform="rotate(61.08, 93.44, 358.53)"></rect><path d="M194.32 528.55L190.09 516.47 200.96 509.69 196.74 497.6 207.6 490.83 203.38 478.74 214.25 471.96" stroke="rgba(68, 43, 72, 1)" stroke-width="2.53" stroke-dasharray="2, 2"></path><path d="M1072.01 362.72L1077.26 374.4 1067.03 382.09 1072.28 393.77 1062.04 401.46 1067.3 413.14 1057.06 420.83M1064.26 360.73L1069.52 372.41 1059.28 380.1 1064.53 391.78 1054.3 399.47 1059.55 411.15 1049.32 418.84M1056.51 358.74L1061.77 370.41 1051.53 378.11 1056.79 389.78 1046.55 397.48 1051.81 409.15 1041.57 416.85" stroke="rgba(237, 180, 88, 1)" stroke-width="2.33"></path><path d="M1164.17 226.75L1176.97 226.9 1179.64 239.42 1192.44 239.57 1195.11 252.1 1207.91 252.25 1210.58 264.78M1159.1 232.94L1171.9 233.09 1174.57 245.61 1187.37 245.76 1190.04 258.29 1202.84 258.44 1205.51 270.96M1154.03 239.13L1166.83 239.28 1169.5 251.8 1182.3 251.95 1184.97 264.48 1197.77 264.63 1200.44 277.15" stroke="rgba(68, 43, 72, 1)" stroke-width="1" stroke-dasharray="3, 2"></path><rect width="75" height="75" clip-path="url(&quot;#SvgjsClipPath1387&quot;)" x="409.44" y="2.28" fill="url(#SvgjsPattern1388)" transform="rotate(232.62, 446.94, 39.78)"></rect><circle r="47.22167131667599" cx="130.39" cy="290.62" fill="rgba(195, 60, 84, 1)"></circle><rect width="288" height="288" clip-path="url(&quot;#SvgjsClipPath1389&quot;)" x="-28.66" y="-142.52" fill="url(#SvgjsPattern1390)" transform="rotate(141.45, 115.34, 1.48)"></rect><rect width="134" height="134" clip-path="url(&quot;#SvgjsClipPath1391&quot;)" x="1161.09" y="89.47" fill="url(#SvgjsPattern1392)" transform="rotate(205.05, 1228.09, 156.47)"></rect></g><defs><mask id="SvgjsMask1380"><rect width="1440" height="560" fill="#ffffff"></rect></mask><pattern x="0" y="0" width="8.68" height="8.68" patternUnits="userSpaceOnUse" id="SvgjsPattern1382"><path d="M4.34 1L4.34 7.68M1 4.34L7.68 4.34" stroke="rgba(237, 180, 88, 1)" fill="none" stroke-width="1.08"></path></pattern><clipPath id="SvgjsClipPath1381"><circle r="56.42" cx="197.65" cy="241.6"></circle></clipPath><pattern x="0" y="0" width="6" height="6" patternUnits="userSpaceOnUse" id="SvgjsPattern1384"><path d="M0 6L3 0L6 6" stroke="rgba(237, 180, 88, 1)" fill="none"></path></pattern><clipPath id="SvgjsClipPath1383"><circle r="15" cx="693.12" cy="461.49"></circle></clipPath><pattern x="0" y="0" width="9.72" height="9.72" patternUnits="userSpaceOnUse" id="SvgjsPattern1386"><path d="M0 9.72L4.86 0L9.72 9.72" stroke="rgba(68, 43, 72, 1)" fill="none"></path></pattern><clipPath id="SvgjsClipPath1385"><circle r="24.3" cx="93.44" cy="358.53"></circle></clipPath><pattern x="0" y="0" width="7.5" height="7.5" patternUnits="userSpaceOnUse" id="SvgjsPattern1388"><path d="M0 7.5L3.75 0L7.5 7.5" stroke="rgba(195, 60, 84, 1)" fill="none"></path></pattern><clipPath id="SvgjsClipPath1387"><circle r="18.75" cx="446.94" cy="39.78"></circle></clipPath><pattern x="0" y="0" width="288" height="6" patternUnits="userSpaceOnUse" id="SvgjsPattern1390"><rect width="288" height="3" x="0" y="0" fill="rgba(68, 43, 72, 1)"></rect><rect width="288" height="3" x="0" y="3" fill="rgba(0, 0, 0, 0)"></rect></pattern><clipPath id="SvgjsClipPath1389"><circle r="72" cx="115.34" cy="1.48"></circle></clipPath><pattern x="0" y="0" width="13.4" height="13.4" patternUnits="userSpaceOnUse" id="SvgjsPattern1392"><path d="M6.7 1L6.7 12.4M1 6.7L12.4 6.7" stroke="rgba(195, 60, 84, 1)" fill="none" stroke-width="4.79"></path></pattern><clipPath id="SvgjsClipPath1391"><circle r="33.5" cx="1228.09" cy="156.47"></circle></clipPath></defs></svg>