<svg id="visual" viewBox="0 0 960 540" width="960" height="540" xmlns="http://www.w3.org/2000/svg" xmlns:xlink="http://www.w3.org/1999/xlink" version="1.1"><path d="M0 125L40 135C80 145 160 165 240 172.2C320 179.3 400 173.7 480 161.8C560 150 640 132 720 124.8C800 117.7 880 121.3 920 123.2L960 125L960 0L920 0C880 0 800 0 720 0C640 0 560 0 480 0C400 0 320 0 240 0C160 0 80 0 40 0L0 0Z" fill="#d4a1d2"></path><path d="M0 190L40 200.8C80 211.7 160 233.3 240 239.7C320 246 400 237 480 223.5C560 210 640 192 720 182C800 172 880 170 920 169L960 168L960 123L920 121.2C880 119.3 800 115.7 720 122.8C640 130 560 148 480 159.8C400 171.7 320 177.3 240 170.2C160 163 80 143 40 133L0 123Z" fill="#cb8cc8"></path><path d="M0 357L40 358.8C80 360.7 160 364.3 240 364.3C320 364.3 400 360.7 480 364.3C560 368 640 379 720 378.2C800 377.3 880 364.7 920 358.3L960 352L960 166L920 167C880 168 800 170 720 180C640 190 560 208 480 221.5C400 235 320 244 240 237.7C160 231.3 80 209.7 40 198.8L0 188Z" fill="#c177bd"></path><path d="M0 476L40 474.2C80 472.3 160 468.7 240 470.5C320 472.3 400 479.7 480 483.3C560 487 640 487 720 487C800 487 880 487 920 487L960 487L960 350L920 356.3C880 362.7 800 375.3 720 376.2C640 377 560 366 480 362.3C400 358.7 320 362.3 240 362.3C160 362.3 80 358.7 40 356.8L0 355Z" fill="#a866a4"></path><path d="M0 541L40 541C80 541 160 541 240 541C320 541 400 541 480 541C560 541 640 541 720 541C800 541 880 541 920 541L960 541L960 485L920 485C880 485 800 485 720 485C640 485 560 485 480 481.3C400 477.7 320 470.3 240 468.5C160 466.7 80 470.3 40 472.2L0 474Z" fill="#90558c"></path></svg>