<svg id="visual"  width="900" height="600" preserveAspectRatio='none' xmlns="http://www.w3.org/2000/svg" xmlns:xlink="http://www.w3.org/1999/xlink" version="1.1"><rect x="0" y="0" width="900" height="600" fill="#ffffff"></rect><path d="M0 209L16.7 209.8C33.3 210.7 66.7 212.3 100 217.7C133.3 223 166.7 232 200 234.8C233.3 237.7 266.7 234.3 300 225.3C333.3 216.3 366.7 201.7 400 203.5C433.3 205.3 466.7 223.7 500 234.2C533.3 244.7 566.7 247.3 600 241.3C633.3 235.3 666.7 220.7 700 212.8C733.3 205 766.7 204 800 207.3C833.3 210.7 866.7 218.3 883.3 222.2L900 226L900 0L883.3 0C866.7 0 833.3 0 800 0C766.7 0 733.3 0 700 0C666.7 0 633.3 0 600 0C566.7 0 533.3 0 500 0C466.7 0 433.3 0 400 0C366.7 0 333.3 0 300 0C266.7 0 233.3 0 200 0C166.7 0 133.3 0 100 0C66.7 0 33.3 0 16.7 0L0 0Z" fill="#ffffff"></path><path d="M0 189L16.7 183.8C33.3 178.7 66.7 168.3 100 165.5C133.3 162.7 166.7 167.3 200 173.8C233.3 180.3 266.7 188.7 300 190.8C333.3 193 366.7 189 400 181.5C433.3 174 466.7 163 500 156.8C533.3 150.7 566.7 149.3 600 154.3C633.3 159.3 666.7 170.7 700 172.7C733.3 174.7 766.7 167.3 800 164.3C833.3 161.3 866.7 162.7 883.3 163.3L900 164L900 0L883.3 0C866.7 0 833.3 0 800 0C766.7 0 733.3 0 700 0C666.7 0 633.3 0 600 0C566.7 0 533.3 0 500 0C466.7 0 433.3 0 400 0C366.7 0 333.3 0 300 0C266.7 0 233.3 0 200 0C166.7 0 133.3 0 100 0C66.7 0 33.3 0 16.7 0L0 0Z" fill="#d2c8df"></path><path d="M0 119L16.7 121.2C33.3 123.3 66.7 127.7 100 133.2C133.3 138.7 166.7 145.3 200 149.2C233.3 153 266.7 154 300 152.8C333.3 151.7 366.7 148.3 400 148.8C433.3 149.3 466.7 153.7 500 155.3C533.3 157 566.7 156 600 154C633.3 152 666.7 149 700 143.5C733.3 138 766.7 130 800 130.8C833.3 131.7 866.7 141.3 883.3 146.2L900 151L900 0L883.3 0C866.7 0 833.3 0 800 0C766.7 0 733.3 0 700 0C666.7 0 633.3 0 600 0C566.7 0 533.3 0 500 0C466.7 0 433.3 0 400 0C366.7 0 333.3 0 300 0C266.7 0 233.3 0 200 0C166.7 0 133.3 0 100 0C66.7 0 33.3 0 16.7 0L0 0Z" fill="#a693bf"></path><path d="M0 81L16.7 83.3C33.3 85.7 66.7 90.3 100 93C133.3 95.7 166.7 96.3 200 96.8C233.3 97.3 266.7 97.7 300 94.2C333.3 90.7 366.7 83.3 400 80.3C433.3 77.3 466.7 78.7 500 77.5C533.3 76.3 566.7 72.7 600 74.7C633.3 76.7 666.7 84.3 700 91.2C733.3 98 766.7 104 800 104.8C833.3 105.7 866.7 101.3 883.3 99.2L900 97L900 0L883.3 0C866.7 0 833.3 0 800 0C766.7 0 733.3 0 700 0C666.7 0 633.3 0 600 0C566.7 0 533.3 0 500 0C466.7 0 433.3 0 400 0C366.7 0 333.3 0 300 0C266.7 0 233.3 0 200 0C166.7 0 133.3 0 100 0C66.7 0 33.3 0 16.7 0L0 0Z" fill="#7a619f"></path><path d="M0 49L16.7 51.3C33.3 53.7 66.7 58.3 100 58.8C133.3 59.3 166.7 55.7 200 50.8C233.3 46 266.7 40 300 42.7C333.3 45.3 366.7 56.7 400 62.2C433.3 67.7 466.7 67.3 500 64.5C533.3 61.7 566.7 56.3 600 55.2C633.3 54 666.7 57 700 57C733.3 57 766.7 54 800 53C833.3 52 866.7 53 883.3 53.5L900 54L900 0L883.3 0C866.7 0 833.3 0 800 0C766.7 0 733.3 0 700 0C666.7 0 633.3 0 600 0C566.7 0 533.3 0 500 0C466.7 0 433.3 0 400 0C366.7 0 333.3 0 300 0C266.7 0 233.3 0 200 0C166.7 0 133.3 0 100 0C66.7 0 33.3 0 16.7 0L0 0Z" fill="#4d3280"></path></svg>