<svg id="visual" viewBox="0 0 900 600" width="900" height="600" xmlns="http://www.w3.org/2000/svg" xmlns:xlink="http://www.w3.org/1999/xlink" version="1.1"><rect x="0" y="0" width="900" height="600" fill="#0d0518"></rect><defs><linearGradient id="grad1_0" x1="33.3%" y1="0%" x2="100%" y2="100%"><stop offset="20%" stop-color="#0d0518" stop-opacity="1"></stop><stop offset="80%" stop-color="#0d0518" stop-opacity="1"></stop></linearGradient></defs><defs><linearGradient id="grad2_0" x1="0%" y1="0%" x2="66.7%" y2="100%"><stop offset="20%" stop-color="#0d0518" stop-opacity="1"></stop><stop offset="80%" stop-color="#0d0518" stop-opacity="1"></stop></linearGradient></defs><g transform="translate(900, 0)"><path d="M0 324.5C-19.1 263.4 -38.1 202.2 -80.7 194.9C-123.3 187.6 -189.5 234.2 -229.5 229.5C-269.4 224.8 -283.2 168.9 -294.7 122.1C-306.2 75.3 -315.3 37.6 -324.5 0L0 0Z" fill="#4d3280"></path></g><g transform="translate(0, 600)"><path d="M0 -324.5C44.8 -323.4 89.6 -322.2 124.2 -299.8C158.8 -277.3 183.2 -233.6 195.9 -195.9C208.6 -158.2 209.6 -126.5 229.1 -94.9C248.6 -63.3 286.6 -31.6 324.5 0L0 0Z" fill="#4d3280"></path></g></svg>