<svg id="visual" viewBox="0 0 900 600" width="900" height="600" xmlns="http://www.w3.org/2000/svg" xmlns:xlink="http://www.w3.org/1999/xlink" version="1.1"><rect x="0" y="0" width="900" height="600" fill="#1d1300"></rect><defs><linearGradient id="grad1_0" x1="33.3%" y1="0%" x2="100%" y2="100%"><stop offset="20%" stop-color="#1d1300" stop-opacity="1"></stop><stop offset="80%" stop-color="#1d1300" stop-opacity="1"></stop></linearGradient></defs><defs><linearGradient id="grad2_0" x1="0%" y1="0%" x2="66.7%" y2="100%"><stop offset="20%" stop-color="#1d1300" stop-opacity="1"></stop><stop offset="80%" stop-color="#1d1300" stop-opacity="1"></stop></linearGradient></defs><g transform="translate(900, 0)"><path d="M0 351.5C-50.7 324.2 -101.4 296.9 -156.5 271.1C-211.6 245.2 -271.2 220.7 -304.4 175.8C-337.7 130.8 -344.6 65.4 -351.5 0L0 0Z" fill="#b38400"></path></g><g transform="translate(0, 600)"><path d="M0 -351.5C39.2 -304.4 78.4 -257.2 135 -233.8C191.6 -210.4 265.5 -210.8 304.4 -175.8C343.4 -140.8 347.5 -70.4 351.5 0L0 0Z" fill="#b38400"></path></g></svg>