<svg id="visual" viewBox="0 0 900 600" width="900" height="600" xmlns="http://www.w3.org/2000/svg" xmlns:xlink="http://www.w3.org/1999/xlink" version="1.1"><rect x="0" y="0" width="900" height="600" fill="#0d0518"></rect><defs><linearGradient id="grad1_0" x1="33.3%" y1="0%" x2="100%" y2="100%"><stop offset="20%" stop-color="#0d0518" stop-opacity="1"></stop><stop offset="80%" stop-color="#0d0518" stop-opacity="1"></stop></linearGradient></defs><defs><linearGradient id="grad2_0" x1="0%" y1="0%" x2="66.7%" y2="100%"><stop offset="20%" stop-color="#0d0518" stop-opacity="1"></stop><stop offset="80%" stop-color="#0d0518" stop-opacity="1"></stop></linearGradient></defs><g transform="translate(900, 0)"><path d="M0 324.5C-33.2 286.1 -66.5 247.7 -92.2 222.7C-118 197.6 -136.3 185.8 -174.7 174.7C-213 163.6 -271.5 153.2 -299.8 124.2C-328.1 95.2 -326.3 47.6 -324.5 0L0 0Z" fill="#4d3280"></path></g><g transform="translate(0, 600)"><path d="M0 -324.5C16.3 -263.4 32.5 -202.4 81.9 -197.7C131.3 -193 213.8 -244.8 229.5 -229.5C245.1 -214.1 193.9 -131.7 198.6 -82.3C203.3 -32.9 263.9 -16.4 324.5 0L0 0Z" fill="#4d3280"></path></g></svg>