<svg id="visual" viewBox="0 0 900 600" width="900" height="600" xmlns="http://www.w3.org/2000/svg" xmlns:xlink="http://www.w3.org/1999/xlink" version="1.1"><rect x="0" y="0" width="900" height="600" fill="#0d0518"></rect><defs><linearGradient id="grad1_0" x1="33.3%" y1="100%" x2="100%" y2="0%"><stop offset="20%" stop-color="#0d0518" stop-opacity="1"></stop><stop offset="80%" stop-color="#0d0518" stop-opacity="1"></stop></linearGradient></defs><defs><linearGradient id="grad2_0" x1="0%" y1="100%" x2="66.7%" y2="0%"><stop offset="20%" stop-color="#0d0518" stop-opacity="1"></stop><stop offset="80%" stop-color="#0d0518" stop-opacity="1"></stop></linearGradient></defs><g transform="translate(900, 600)"><path d="M-324.5 0C-321.4 -48.5 -318.3 -97 -286.4 -118.6C-254.5 -140.3 -193.9 -135.1 -166.9 -166.9C-139.8 -198.6 -146.4 -267.4 -124.2 -299.8C-102 -332.2 -51 -328.4 0 -324.5L0 0Z" fill="#4d3280"></path></g><g transform="translate(0, 0)"><path d="M324.5 0C322.7 43.6 320.8 87.3 299.8 124.2C278.8 161.1 238.6 191.3 198.7 198.7C158.8 206.1 119.2 190.7 86.1 207.9C53 225 26.5 274.8 0 324.5L0 0Z" fill="#4d3280"></path></g></svg>