<svg id="visual" viewBox="0 0 900 600" width="900" height="600" xmlns="http://www.w3.org/2000/svg" xmlns:xlink="http://www.w3.org/1999/xlink" version="1.1"><rect x="0" y="0" width="900" height="600" fill="#1d1300"></rect><defs><linearGradient id="grad1_0" x1="33.3%" y1="100%" x2="100%" y2="0%"><stop offset="20%" stop-color="#1d1300" stop-opacity="1"></stop><stop offset="80%" stop-color="#1d1300" stop-opacity="1"></stop></linearGradient></defs><defs><linearGradient id="grad2_0" x1="0%" y1="100%" x2="66.7%" y2="0%"><stop offset="20%" stop-color="#1d1300" stop-opacity="1"></stop><stop offset="80%" stop-color="#1d1300" stop-opacity="1"></stop></linearGradient></defs><g transform="translate(900, 600)"><path d="M-351.5 0C-266.5 -17.4 -181.5 -34.7 -162.8 -94C-144.1 -153.3 -191.8 -254.5 -175.8 -304.4C-159.7 -354.4 -79.8 -352.9 0 -351.5L0 0Z" fill="#b38400"></path></g><g transform="translate(0, 0)"><path d="M351.5 0C351.9 78 352.2 156 304.4 175.8C256.7 195.5 160.8 157.1 102 176.7C43.2 196.3 21.6 273.9 0 351.5L0 0Z" fill="#b38400"></path></g></svg>