<svg id="visual" viewBox="0 0 900 600" width="900" height="600" xmlns="http://www.w3.org/2000/svg" xmlns:xlink="http://www.w3.org/1999/xlink" version="1.1"><rect x="0" y="0" width="900" height="600" fill="#1e0002"></rect><defs><linearGradient id="grad1_0" x1="33.3%" y1="0%" x2="100%" y2="100%"><stop offset="20%" stop-color="#1e0002" stop-opacity="1"></stop><stop offset="80%" stop-color="#1e0002" stop-opacity="1"></stop></linearGradient></defs><defs><linearGradient id="grad2_0" x1="0%" y1="0%" x2="66.7%" y2="100%"><stop offset="20%" stop-color="#1e0002" stop-opacity="1"></stop><stop offset="80%" stop-color="#1e0002" stop-opacity="1"></stop></linearGradient></defs><g transform="translate(900, 0)"><path d="M0 351.5C-65.2 344.5 -130.4 337.4 -175.8 304.4C-221.2 271.5 -246.8 212.6 -272.8 157.5C-298.8 102.4 -325.2 51.2 -351.5 0L0 0Z" fill="#a01220"></path></g><g transform="translate(0, 600)"><path d="M0 -351.5C78.5 -352.1 156.9 -352.8 175.8 -304.4C194.6 -256.1 153.8 -158.9 173.2 -100C192.6 -41.1 272.1 -20.6 351.5 0L0 0Z" fill="#a01220"></path></g></svg>